<svg xmlns="http://www.w3.org/2000/svg" viewBox="0 0 434.6 436.68"><defs><style>.cls-1{fill:#fc0;}.cls-2{fill:#ffa008;}</style></defs><g id="Layer_2" data-name="Layer 2"><g id="Layer_1-2" data-name="Layer 1"><path class="cls-1" d="M302,17.12c-2.38,3-4.76,5.95-7.13,8.94a39.35,39.35,0,0,0-8.21,19.79c-1.13,8.57.19,16.84,2.87,25q1.88,5.67,3.79,11.35c.12.35.25.7.49,1.35.59-1.3,1.08-2.31,1.51-3.34a72,72,0,0,1,10.52-18.42c6.08-7.4,13.08-13.7,21.94-17.56,4.59-2,9.37-3.54,14.18-5.1-1.74,1.44-3.48,2.89-5.23,4.32-3.6,2.93-7.21,5.84-10,9.63a44.62,44.62,0,0,0-8,19.85A65.52,65.52,0,0,0,318.89,92c.37,2.79.62,5.6.94,8.4.06.56.15,1.12.27,1.94.52-.68.92-1.16,1.28-1.66,3.61-5,7.19-10.13,11.84-14.33,7.44-6.71,15.73-12,25.45-14.64a106.66,106.66,0,0,1,10.71-1.92,53.16,53.16,0,0,1,6.76-.71c-.3.17-.6.36-.91.52-3.72,2-7.54,3.77-11.15,5.92C355.88,80.36,350.5,87.63,347,96.4a59.69,59.69,0,0,0-3.89,17.24c-.33,3.94-.78,7.87-1.17,11.81a6.76,6.76,0,0,0,.06.69c.48-.39.83-.66,1.16-1,4-3.58,7.87-7.36,12.43-10.31a64.13,64.13,0,0,1,27.7-10.34,88.24,88.24,0,0,1,12.06,0c2.88.08,5.76.4,8.68.73l-1.93.57c-4.31,1.25-8.71,2.25-12.9,3.82-9,3.36-15.51,9.69-20.55,17.69-3.48,5.51-5.65,11.57-7.51,17.77-.88,2.93-1.83,5.84-2.83,9,.6-.3,1-.47,1.37-.68,4.62-2.62,9.1-5.49,14.08-7.43a68.84,68.84,0,0,1,25.92-4.74,57.6,57.6,0,0,1,16.44,3c2.38.74,4.79,1.39,7.18,2.27-1.78.12-3.55.25-5.33.35-4.83.28-9.69.37-14.39,1.78A44.89,44.89,0,0,0,383.21,162c-4.21,4.59-7.34,9.9-10.33,15.31-1.35,2.46-2.75,4.9-4.29,7.62.62-.15,1-.23,1.31-.33,4.4-1.3,8.76-2.81,13.22-3.87a61,61,0,0,1,19.67-1.14A50.93,50.93,0,0,1,420,183.73c4.71,2.2,9.25,4.74,13.79,7.33-2.51-.36-5.05-.6-7.54-1.12-15.42-3.23-28.56,1.46-39.86,11.82-4.48,4.11-8.33,8.89-12.47,13.38-.52.57-1,1.16-1.76,2,1.52-.13,2.74-.19,3.95-.34a74.89,74.89,0,0,1,13.54-.78c14,.83,26.9,4.77,37.67,14.25,2.11,1.87,4.31,3.64,6.47,5.45a2.66,2.66,0,0,1,.77.95c-1-.38-2-.78-3-1.13-4.27-1.48-8.47-3.26-12.84-4.35-7.86-1.95-15.64-.95-23.23,1.71a60.19,60.19,0,0,0-16.16,8.87c-2.83,2.12-5.68,4.21-8.52,6.31l-1.73,1.32,3.48.44c3.81.5,7.69.72,11.43,1.56,13.11,3,24.68,8.82,33.66,19.08,3,3.49,5.75,7.27,8.51,11.07l-2.69-1.69c-3.05-1.92-6-4-9.16-5.73a40,40,0,0,0-23.12-4.74,61.27,61.27,0,0,0-21.55,6.17c-3,1.41-6,2.76-9,4.14-.35.16-.68.34-1.27.63,1.15.39,2,.72,2.94,1,7,2.09,13.84,4.67,20,8.77,8.25,5.49,15.39,12.07,20.16,20.89,2.21,4.1,4.14,8.37,6.09,12.67-.24-.21-.49-.42-.72-.65-3.61-3.44-7.05-7.11-10.88-10.29-6.07-5-13.29-7.43-21.07-8.37-7.48-.9-14.79.09-22.05,1.8-3.08.73-6.18,1.39-9.28,2.08-.29.07-.57.18-1.08.33.64.4,1.08.68,1.54.94,5.21,3,10.52,5.9,15.08,9.92,7.77,6.85,14.16,14.75,17.83,24.51,1.74,4.64,2.71,9.58,4,14.39a14.44,14.44,0,0,1,.51,2.77l-1.21-1.77c-2.2-3.29-4.26-6.69-6.63-9.86-5.79-7.74-13.7-12.33-22.89-14.87a56.29,56.29,0,0,0-15.44-2c-4.11,0-8.21,0-12.31.05H321.9c.48.51.74.81,1,1.08,3.57,3.44,7.43,6.63,10.67,10.35a61.72,61.72,0,0,1,14.82,30.84,95.16,95.16,0,0,1,.72,11.09c.1,2.12,0,4.25,0,6.26-1-2.55-2.16-5.23-3.11-8-5.2-15-16.2-23.64-30.87-28-6-1.8-12.29-2.78-18.44-4.13a6.2,6.2,0,0,0-.77,0c.31.46.51.8.74,1.12,3.12,4.39,6.49,8.61,8.94,13.44a70.32,70.32,0,0,1,7.18,23.71c.74,6.26,0,12.37-1.23,18.48-.45,2.32-.83,4.66-1.45,7-.38-2.33-.8-4.66-1.15-7-.82-5.55-2-11-4.7-16-4.16-7.68-10.25-13.45-17.6-18-5.18-3.21-10.89-5.3-16.41-7.79a22.34,22.34,0,0,0-3.8-1.39L267,367c1.85,4.55,4,9,5.48,13.68a65,65,0,0,1,2.65,24.2c-.44,7.17-2.71,13.8-5.51,20.31-.86,2-1.64,4-2.54,6.23.13-3.45.14-6.65.4-9.84,1-12.05-3.08-22.33-10.74-31.41a70.31,70.31,0,0,0-14-12.08c-2.31-1.61-4.59-3.27-6.89-4.9-.3-.22-.62-.41-1.18-.76.44,2.13.77,4,1.21,5.8a63.76,63.76,0,0,1,1.84,18.45c-.51,9.84-2.55,19.31-7.66,27.86-2.5,4.18-5.37,8.14-8.27,12.12.67-2.6,1.32-5.2,2-7.78a48,48,0,0,0,2.08-13.26,45.13,45.13,0,0,0-6.33-22.05,59.29,59.29,0,0,0-8-10.84c-2.78-3-5.54-6.06-8.31-9.09-.23-.26-.43-.56-.64-.84l-.32.13c0,.35-.07.71-.07,1.06,0,2.72,0,5.43,0,8.14A63.34,63.34,0,0,1,197,406.76a51.94,51.94,0,0,1-10.8,16.83c-3.15,3.15-6.39,6.21-9.73,9.23.11-.27.22-.54.35-.8,2.14-4.47,4.58-8.82,6.36-13.43,3.52-9.14,3-18.44.2-27.69a64.92,64.92,0,0,0-6.64-14.44c-1.71-2.85-3.36-5.72-5-8.58-.29-.49-.59-1-1.06-1.75-.44,2-.86,3.67-1.16,5.36a67.12,67.12,0,0,1-14.55,31.37,51.84,51.84,0,0,1-13.86,11.81c-2.73,1.6-5.39,3.34-8.36,5.2.27-.44.36-.64.49-.8,2.41-3.05,4.87-6.06,7.24-9.15a38.91,38.91,0,0,0,7.72-19.44c1.1-8.9-.43-17.46-3.34-25.84-1.16-3.33-2.23-6.69-3.34-10-.13-.36-.28-.72-.52-1.32-.28.55-.46.9-.62,1.27-2.42,5.39-4.62,10.9-8,15.8-6.58,9.5-14.63,17.37-25.29,22.14-4.51,2-9.26,3.5-13.91,5.22a1.19,1.19,0,0,1-.31-.08l5.3-4.38c3.19-2.63,6.45-5.18,9-8.46a44.1,44.1,0,0,0,8.86-21,64.47,64.47,0,0,0-.14-18.66c-.45-3.28-.76-6.58-1.13-9.87,0-.17-.06-.33-.14-.74-.42.52-.73.87-1,1.25-3.22,4.37-6.21,8.9-10.11,12.73-8.25,8.09-17.68,14.2-29,17-3.8.93-7.73,1.28-11.6,1.88-1.51.24-3,.42-4.85.67.54-.32.84-.52,1.14-.68,2.75-1.44,5.48-2.92,8.26-4.29,9.62-4.76,16-12.41,20-22.2a60.32,60.32,0,0,0,4.14-18.16c.27-3.31.66-6.6,1-9.9.07-.66.09-1.33.14-2.24-.45.36-.72.56-1,.79-4.35,3.86-8.51,7.93-13.48,11A67.43,67.43,0,0,1,52,332.17a62.39,62.39,0,0,1-13.66-.05c-2.51-.19-5-.37-7.57-.71,2.53-.7,5-1.46,7.59-2.08,6.26-1.54,12.13-3.89,17.22-8a48.78,48.78,0,0,0,15-21.1c2.1-5.56,3.74-11.29,5.59-16.94,0-.16,0-.34.12-.75l-1.52.83c-5,2.88-9.86,5.89-15.3,7.85a68.5,68.5,0,0,1-26,4.11c-5.17-.2-10.12-1.56-15-3-2.35-.7-4.72-1.37-7.08-2.19,2.19-.15,4.39-.31,6.59-.43,4.55-.24,9.11-.44,13.52-1.8,8.41-2.59,15.2-7.54,20.93-14.1a73.77,73.77,0,0,0,8.85-13.23c1.42-2.56,2.87-5.09,4.31-7.64.17-.3.31-.61.61-1.18-1.82.59-3.37,1.08-4.91,1.59a77,77,0,0,1-12.7,3.32,69.11,69.11,0,0,1-17.48.43,51,51,0,0,1-16.89-4.34c-4.53-2.17-8.92-4.62-13.3-7.11,3.79.56,7.57,1.1,11.35,1.68A39.72,39.72,0,0,0,36.85,243a57.16,57.16,0,0,0,16.8-13.4l8.09-9.15c.2-.22.37-.48.72-.95-2,.21-3.77.36-5.52.58-15.41,1.94-29.94-.63-43.2-8.88-3.49-2.17-6.53-5.07-9.76-7.66A44.5,44.5,0,0,1,0,200c3.09,1.16,6.2,2.27,9.26,3.49a39.84,39.84,0,0,0,15,3,46.73,46.73,0,0,0,18.65-4.13A71.11,71.11,0,0,0,57.2,193.6c2.45-1.85,4.93-3.66,7.4-5.49.27-.2.52-.43,1-.84-2.26-.25-4.22-.51-6.18-.68-15.23-1.34-28.64-6.91-39.69-17.54-3.46-3.34-6.21-7.43-9.28-11.19a16.59,16.59,0,0,1-1.8-2.57,8.3,8.3,0,0,1,.78.41C12.73,157.79,16,160,19.29,162A39.11,39.11,0,0,0,40,167.44a54.54,54.54,0,0,0,21.76-4.82c4.25-1.84,8.45-3.81,12.66-5.74.25-.11.47-.27.92-.53-1.17-.39-2.12-.74-3.09-1-6.64-2-13.11-4.4-19-8.18-8.36-5.39-15.63-11.9-20.56-20.66-2.4-4.29-4.4-8.79-6.43-13.35l.93.87c3.18,3.08,6.25,6.29,9.57,9.2a38.6,38.6,0,0,0,18.6,8.64c8.39,1.62,16.67.82,24.9-1.13,3.37-.79,6.74-1.51,10.11-2.27.23-.05.44-.15.91-.31l-1.43-.85c-4.59-2.69-9.32-5.14-13.45-8.54-9-7.43-16.26-16.26-20.13-27.42-1.72-5-2.73-10.17-4.06-15.27a2.49,2.49,0,0,1,.06-.46c1.79,2.7,3.57,5.23,5.19,7.87,7,11.36,17.47,17.34,30.32,19.72,5.41,1,10.85.92,16.31.85,2.46,0,4.93,0,7.39,0,.34,0,.69,0,1,0l.35-.42a4.15,4.15,0,0,1-1-.55c-3.19-3-6.55-5.77-9.49-9a62.92,62.92,0,0,1-15.73-30.5,71.15,71.15,0,0,1-.91-9.35c-.2-3.24-.24-6.48-.18-9.77l1,2.62c1.33,3.34,2.53,6.74,4,10,4.33,9.5,11.7,15.93,20.95,20.4,6,2.92,12.48,4.38,19,5.61,2.31.44,4.61.94,6.91,1.4.37.08.74.12,1.43.23-.76-1.06-1.32-1.87-1.92-2.65-4.45-5.84-8.41-12-11-18.88-2.94-7.94-4.75-16.09-4.33-24.57a108.48,108.48,0,0,1,1.52-11c.35-2.32.81-4.63,1.35-7q.52,3.09,1,6.18c.75,4.45,1.33,8.95,3.06,13.18,3.47,8.47,9.31,14.94,16.73,20.13,5,3.48,10.53,5.82,16.07,8.2,2.21.95,4.42,1.92,6.92,3-.26-.65-.39-1-.55-1.41-2.18-5-4.6-9.89-6-15.19a68.88,68.88,0,0,1-2-24.91,46.4,46.4,0,0,1,3.45-13.63c1.44-3.41,2.78-6.86,4.24-10.46,0,1.52,0,2.86,0,4.2,0,4.27-.35,8.57-.09,12.82.42,6.84,3,13,6.77,18.69a58.53,58.53,0,0,0,15.74,15.71c2.92,2.05,5.81,4.14,8.71,6.22l1.4.94c-.27-1.36-.5-2.44-.69-3.53-.73-4.17-1.64-8.32-2.1-12.52a58.41,58.41,0,0,1-.15-9.72,66.89,66.89,0,0,1,3.26-17c1.87-5.78,5-10.84,8.47-15.77,1.35-1.92,2.64-3.89,4.12-5.78-.53,2-1.09,4-1.57,6.08-.78,3.32-1.69,6.63-2.21,10A38.42,38.42,0,0,0,211.34,35a57.43,57.43,0,0,0,12.41,19.69c2.57,2.77,5.11,5.58,7.66,8.37.23.26.42.56.63.83l.38-.13c0-.83,0-1.67,0-2.5,0-3-.11-6.07.11-9.09,1.19-15.94,6.52-30.07,18.3-41.33,2.45-2.34,4.88-4.7,7.44-7-.09.23-.17.46-.28.68-1.67,3.35-3.36,6.69-5,10.05a39.33,39.33,0,0,0-3.69,20.9A54.88,54.88,0,0,0,256.71,58c2.19,3.85,4.47,7.63,6.72,11.44.15.27.34.51.69,1,.51-2.38,1-4.48,1.4-6.58a66,66,0,0,1,18.6-34.73c3.52-3.52,7.76-6,11.94-8.63L301.79,17Z"/><circle class="cls-2" cx="217.3" cy="218.34" r="142.75"/></g></g></svg>