<?xml version="1.0" encoding="UTF-8"?><svg id="Layer_1" xmlns="http://www.w3.org/2000/svg" viewBox="0 0 32 32"><defs><style>.cls-1{fill:#0071bc;}</style></defs><path class="cls-1" d="M19.33,21.78c-.55,.25-1.05,.53-1.59,.7-1.03,.32-2.07,.27-3.07-.15-.32-.14-.51-.11-.78,.13-1.71,1.56-4.38,1.08-5.45-.95-.1-.18-.17-.37-.26-.56-.43,.15-.85,.33-1.28,.44-1.6,.4-3.15,.28-4.59-.6-.75-.45-1.35-1.05-1.62-1.92-.41-1.32,.02-2.4,1.01-3.28,.92-.82,2.03-1.19,3.24-1.24,.55-.02,1.09,.03,1.69,.05,.03-.9,.37-1.65,1.18-2.12,.79-.46,1.6-.47,2.43-.01,.06-.14,.11-.26,.15-.39,1.01-2.7,3.63-4.56,6.49-4.57,2.62-.01,4.7,1.06,6.18,3.26,.55,.81,.86,1.72,.97,2.7,.02,.18,.08,.26,.26,.3,.83,.18,1.63,.43,2.33,.92,.3,.21,.57,.45,.82,.71,.22,.22,.45,.27,.75,.22,1.4-.25,2.87,.73,3.2,2.13,.39,1.69-.91,3.42-2.62,3.42-.49,0-.76,.17-1.06,.54-.79,.99-1.85,1.58-3.08,1.82-1.69,.33-3.26,.03-4.67-1-.24-.18-.46-.39-.64-.54Z"/></svg>