<svg width="45" height="45" viewBox="0 0 45 45" fill="none" xmlns="http://www.w3.org/2000/svg">
<path d="M44.1566 40.9025L30.0379 26.7839C32.2288 23.9514 33.414 20.4884 33.414 16.8459C33.414 12.4858 31.7124 8.39754 28.6353 5.31502C25.5582 2.23251 21.4591 0.536316 17.1044 0.536316C12.7498 0.536316 8.65061 2.23795 5.57354 5.31502C2.49103 8.3921 0.79483 12.4858 0.79483 16.8459C0.79483 21.2006 2.49646 25.2997 5.57354 28.3768C8.65061 31.4593 12.7443 33.1555 17.1044 33.1555C20.7469 33.1555 24.2045 31.9703 27.037 29.7848L41.1556 43.8981C41.197 43.9395 41.2462 43.9724 41.3003 43.9948C41.3544 44.0172 41.4124 44.0287 41.4709 44.0287C41.5295 44.0287 41.5875 44.0172 41.6416 43.9948C41.6957 43.9724 41.7449 43.9395 41.7863 43.8981L44.1566 41.5332C44.198 41.4918 44.2309 41.4426 44.2533 41.3885C44.2757 41.3344 44.2873 41.2764 44.2873 41.2179C44.2873 41.1593 44.2757 41.1013 44.2533 41.0472C44.2309 40.9931 44.198 40.9439 44.1566 40.9025ZM25.7159 25.4574C23.4108 27.757 20.3555 29.0237 17.1044 29.0237C13.8534 29.0237 10.798 27.757 8.49296 25.4574C6.1933 23.1523 4.92659 20.0969 4.92659 16.8459C4.92659 13.5949 6.1933 10.5341 8.49296 8.23444C10.798 5.93479 13.8534 4.66808 17.1044 4.66808C20.3555 4.66808 23.4162 5.92935 25.7159 8.23444C28.0155 10.5395 29.2822 13.5949 29.2822 16.8459C29.2822 20.0969 28.0155 23.1577 25.7159 25.4574Z" fill="#CDCDCD"/>
</svg>
